<?xml version="1.0" encoding="UTF-8"?>
<svg id="Layer_1" data-name="Layer 1" xmlns="http://www.w3.org/2000/svg" viewBox="0 0 224.36 199.52">
  <defs>
    <style>
      .cls-1 {
        fill: #000;
        stroke-width: 0px;
      }
    </style>
  </defs>
  <path class="cls-1" d="M199.49,149.75h-5.97c-44.18,0-88.37-.07-132.55.1-4.41.02-6.42-.92-7.28-5.59-5.77-31.43-11.84-62.8-17.8-94.19-1.77-9.32-3.51-18.64-5.17-27.98-.51-2.89-2.1-3.71-4.88-3.65-7.17.14-14.34-.07-21.51.09C1.1,18.61.08,17.5.04,14.21-.14.05-.25.05,13.96.05c8.84,0,17.68.09,26.51-.05,3.14-.05,5.17.57,5.24,4.23.04,1.8.29,3.75,1.07,5.33.66,1.33,2.06,2.55,3.42,3.2,1.09.52,2.62.12,3.95.12,54.52,0,109.04,0,163.56,0,1.95,0,3.89,0,6.65,0-10.43,33.4-20.62,66.04-30.95,99.14h-127.11c1.14,6.13,1.9,11.71,3.41,17.08.32,1.14,3.38,2.12,5.18,2.13,30.34.13,60.69.09,91.04.09,9.34,0,18.67-.02,28.01.01,1.79,0,3.58.2,5.54.32v18.1ZM50.63,31.2c4.01,20.33,7.97,40.17,11.78,60.03.69,3.61,3.23,2.7,5.36,2.7,35.97.04,71.94-.04,107.91.13,3.82.02,5.18-1.41,6.19-4.72,5.04-16.53,10.28-33.01,15.4-49.52.86-2.76,1.48-5.6,2.27-8.64H50.63Z"/>
  <path class="cls-1" d="M163.03,181.05c.05-10.53,7.88-18.23,18.43-18.11,9.92.11,18.1,8.23,18.23,18.1.13,10.02-8.33,18.48-18.46,18.45-10.41-.03-18.24-7.97-18.19-18.45Z"/>
  <path class="cls-1" d="M68.56,162.99c10.51,0,18.38,7.82,18.37,18.25-.01,10.23-8.27,18.39-18.49,18.28-10.1-.11-18.26-8.25-18.17-18.13.1-10.48,7.97-18.4,18.29-18.4Z"/>
</svg>