<?xml version="1.0" encoding="UTF-8"?>
<svg id="Layer_1" data-name="Layer 1" xmlns="http://www.w3.org/2000/svg" viewBox="0 0 170.75 196.98">
  <defs>
    <style>
      .cls-1 {
        fill: #ff85aa;
      }

      .cls-1, .cls-2 {
        stroke-width: 0px;
      }

      .cls-2 {
        fill: #fff;
      }
    </style>
  </defs>
  <path class="cls-2" d="M168.13,12.96c-12,.26-24.03-.4-35.99.28-6.95.4-10.99-1.73-12.9-8.29-1.09-3.75-3.59-4.88-7.54-4.82-15.66.23-31.35.53-47-.1-7.36-.29-12.09,1.55-14.13,8.8-.97,3.45-3.29,4.34-6.78,4.29-13.17-.19-26.33-.09-39.5-.06-1.41,0-2.83.12-4.3.22v23.77h5.4c31.84,0,63.67,0,95.51,0,21.84,0,43.67,0,65.51,0,1.95,0,3.34,0,4.34-.17V13.19c-.71-.18-1.57-.26-2.62-.23Z"/>
  <path class="cls-2" d="M11.48,54.63c.01.22.03.44.05.67.75,8.62,1.38,17.26,1.92,25.9,2.35,37.9,4.71,75.8,6.88,113.71.05.82.15,1.5.3,2.08h130.83c2.99-47.78,5.94-94.99,8.9-142.35H11.48Z"/>
  <path class="cls-1" d="M11.48,54.63c.01.22.03.44.05.67.75,8.62,1.38,17.26,1.92,25.9,2.35,37.9,4.71,75.8,6.88,113.71.05.82.15,1.5.3,2.08h130.83c2.99-47.78,5.94-94.99,8.9-142.35H11.48Z"/>
  <path class="cls-1" d="M168.13,12.96c-12,.26-24.03-.4-35.99.28-6.95.4-10.99-1.73-12.9-8.29-1.09-3.75-3.59-4.88-7.54-4.82-15.66.23-31.35.53-47-.1-7.36-.29-12.09,1.55-14.13,8.8-.97,3.45-3.29,4.34-6.78,4.29-13.17-.19-26.33-.09-39.5-.06-1.41,0-2.83.12-4.3.22v23.77h5.4c31.84,0,63.67,0,95.51,0,21.84,0,43.67,0,65.51,0,1.95,0,3.34,0,4.34-.17V13.19c-.71-.18-1.57-.26-2.62-.23Z"/>
</svg>