<?xml version="1.0" encoding="UTF-8"?>
<svg id="Layer_1" data-name="Layer 1" xmlns="http://www.w3.org/2000/svg" viewBox="0 0 197.25 197.36">
  <defs>
    <style>
      .cls-1 {
        fill: #ff85aa;
        stroke-width: 0px;
      }
    </style>
  </defs>
  <path class="cls-1" d="M173.98,115.64h-24.35c0,.11,0,.21,0,.33.16,17.16.07,34.32.07,51.47,0,1.77,0,3.55,0,5.52-1.95.17-3.25.38-4.54.38-38.81.02-77.63-.06-116.44.11-4.55.02-5.05-1.88-5.04-5.64.1-37.98.16-75.96-.05-113.94-.03-5.01,1.66-6.06,6.29-5.99,17.32.25,34.65.03,51.97.16.13,0,.26,0,.39,0v-24.72c-.55-.06-1.14-.09-1.81-.08-25.15.22-50.31.1-75.46.11-1.61,0-3.22.17-5.01.27v173.75h173.91c0-4.15,0-7.95,0-11.76,0-23.16-.08-46.31.08-69.47,0-.17,0-.33,0-.49Z"/>
  <path class="cls-1" d="M131.59,27.76c12.9,13,24.82,25.02,37.19,37.5-.71.82-1.68,2.07-2.79,3.19-23.41,23.43-46.75,46.93-70.37,70.15-2.19,2.15-6,3.1-9.22,3.67-10.13,1.81-20.34,3.21-30.53,4.67-1.76.25-3.58.04-5.93.04,1.15-8.26,2.26-16.26,3.38-24.25.07-.49.34-.98.32-1.46-.69-12.59,5.97-21.06,14.66-29.36,20.46-19.53,40.17-39.86,60.15-59.9,1.17-1.17,2-2.68,3.15-4.24Z"/>
  <path class="cls-1" d="M143.53,18.23c5.6-5.63,12.01-12.07,18.13-18.23,11.81,11.84,23.87,23.93,35.58,35.67-5.87,5.92-12.26,12.37-18.14,18.31-11.54-11.6-23.56-23.69-35.57-35.76Z"/>
</svg>